{"title":"Australia *2008* [BluRay][1080p][ENG, POL]","uid":6041673,"size":12977683874,"categoryP":"video","categoryS":"hd___movies","magnet":"?xt=urn:btih:fdd183729350ec694878a7cc5ed43490d41a99bd&amp;dn=Australia+%2A2008%2A+%5BBluRay%5D%5B1080p%5D%5BENG%2C+POL%5D&amp;tr=udp%3A%2F%2Ftracker.openbittorrent.com%3A80&amp;tr=udp%3A%2F%2Fopen.demonii.com%3A1337&amp;tr=udp%3A%2F%2Ftracker.coppersurfer.tk%3A6969&amp;tr=udp%3A%2F%2Fexodus.desync.com%3A6969","seeders":0,"leechers":3,"uploader":"albedo040","files":1,"time":1292406947,"description":"Australia *2008* [BluRay][1080p][ENG, POL]\n\nGeneral information:\nCountry: Australia, USA, UK \nRelease: 18 November 2008\nGenre: Adventure, Drama, History, Romance, War \nDirector: Baz Luhrmann\nScreenplay: Baz Luhrmann, Ronald Harwood, Stuart Beattie, Richard Flanagan\nOriginal Music: Davig Hirschfelder \nCinematography by: Mandy Walker \nDuration: 2h 38mn\nLanguage: English, Polish\nSubtitles: English, Polish\nRating: 7.1/10 - 11011 votes \n\nCast:\nNicole Kidman ...  Lady Sarah Ashley\nShea Adams  ...  Carney Boy 3  \nEddie Baroo  ...  Bull  \nRay Barrett  ...  Ramsden  \nTony Barry  ...  Sergeant Callahan  \nJamal Bednarz-Metallah  ...  Mission Boy  \nDamian Bradford  ...  Constable 1  \nBryan Brown  ...  King Carney  \nNathin Butler  ...  Carney Boy 1  \nTara Carpenter  ...  Essential Services Woman  \nRebecca Chatfield  ...  Magarri's Niece  \nLillian Crombie  ...  Bandy Legs  \nMax Cullen  ...  Old Drunk  \nEssie Davis  ...  Cath Carney  \nArthur Dignam  ...  Father Benedict  \nMichelle Dyzla  ...  Hairdresser  \n\nPlot:\nSet in northern Australia before World War II, an English aristocrat who inherits a sprawling ranch reluctantly pacts with a stock-man in order to protect her new property from a takeover plot. As the pair drive 2,000 head of cattle over unforgiving landscape, they experience the bombing of Darwin, Australia, by Japanese forces firsthand. \n\nSpecifications:\nGeneral\nFormat                           : Matroska\nFile size                        : 12.1 GiB\nWriting library                  : libebml v1.0.0 + libmatroska v1.0.0\n\nVideo\nFormat                           : AVC\nFormat/Info                      : Advanced Video Codec\nFormat profile                   : &lt;a class=&quot;__cf_email__&quot; href=&quot;/cdn-cgi/l/email-protection&quot; data-cfemail=&quot;6b23020c032b275f455a&quot;&gt;[email&amp;#160;protected]&lt;/a&gt;&lt;script cf-hash='f9e31' type=&quot;text/javascript&quot;&gt;\n/* &lt;![CDATA[ */!function(){try{var t=&quot;currentScript&quot;in document?document.currentScript:function(){for(var t=document.getElementsByTagName(&quot;script&quot;),e=t.length;e--;)if(t[e].getAttribute(&quot;cf-hash&quot;))return t[e]}();if(t&amp;&amp;t.previousSibling){var e,r,n,i,c=t.previousSibling,a=c.getAttribute(&quot;data-cfemail&quot;);if(a){for(e=&quot;&quot;,r=parseInt(a.substr(0,2),16),n=2;a.length-n;n+=2)i=parseInt(a.substr(n,2),16)^r,e+=String.fromCharCode(i);e=document.createTextNode(e),c.parentNode.replaceChild(e,c)}}}catch(u){}}();/* ]]&gt; */&lt;/script&gt;\nFormat settings, CABAC           : Yes\nFormat settings, ReFrames        : 5 frames\nMuxing mode                      : Container profile=&lt;a class=&quot;__cf_email__&quot; href=&quot;/cdn-cgi/l/email-protection&quot; data-cfemail=&quot;63360d080d0c140d23574d52&quot;&gt;[email&amp;#160;protected]&lt;/a&gt;&lt;script cf-hash='f9e31' type=&quot;text/javascript&quot;&gt;\n/* &lt;![CDATA[ */!function(){try{var t=&quot;currentScript&quot;in document?document.currentScript:function(){for(var t=document.getElementsByTagName(&quot;script&quot;),e=t.length;e--;)if(t[e].getAttribute(&quot;cf-hash&quot;))return t[e]}();if(t&amp;&amp;t.previousSibling){var e,r,n,i,c=t.previousSibling,a=c.getAttribute(&quot;data-cfemail&quot;);if(a){for(e=&quot;&quot;,r=parseInt(a.substr(0,2),16),n=2;a.length-n;n+=2)i=parseInt(a.substr(n,2),16)^r,e+=String.fromCharCode(i);e=document.createTextNode(e),c.parentNode.replaceChild(e,c)}}}catch(u){}}();/* ]]&gt; */&lt;/script&gt;\nCodec ID                         : V_MPEG4/ISO/AVC\nBit rate                         : 9 842 Kbps\nWidth                            : 1 920 pixels\nHeight                           : 816 pixels\nDisplay aspect ratio             : 2.35:1\nFrame rate                       : 25.000 fps\n\nAudio 1\nFormat                           : AC-3\nFormat/Info                      : Audio Coding 3\nMode extension                   : CM (complete main)\nCodec ID                         : A_AC3\nBit rate mode                    : Constant\nBit rate                         : 448 Kbps\nChannel(s)                       : 6 channels\nChannel positions                : Front: L C R, Side: L R, LFE\nSampling rate                    : 48.0 KHz\nStream size                      : 509 MiB (4%)\nTitle                            : English\n\nAudio 2\nFormat                           : AC-3\nFormat/Info                      : Audio Coding 3\nMode extension                   : CM (complete main)\nCodec ID                         : A_AC3\nBit rate mode                    : Constant\nBit rate                         : 192 Kbps\nChannel(s)                       : 6 channels\nChannel positions                : Front: L C R, Side: L R, LFE\nSampling rate                    : 48.0 KHz\nStream size                      : 218 MiB (2%)\nTitle                            : Polish\nLanguage                         : Polish\n\nText 1\nFormat                           : UTF-8\nCodec ID                         : S_TEXT/UTF8\nCodec ID/Info                    : UTF-8 Plain Text\nTitle                            : English\n\nText 2\nFormat                           : UTF-8\nCodec ID                         : S_TEXT/UTF8\nCodec ID/Info                    : UTF-8 Plain Text\nTitle                            : Polish\n","torrent":{"xt":"urn:btih:fdd183729350ec694878a7cc5ed43490d41a99bd","amp;dn":"Australia+%2A2008%2A+%5BBluRay%5D%5B1080p%5D%5BENG%2C+POL%5D","amp;tr":["udp%3A%2F%2Ftracker.openbittorrent.com%3A80","udp%3A%2F%2Fopen.demonii.com%3A1337","udp%3A%2F%2Ftracker.coppersurfer.tk%3A6969","udp%3A%2F%2Fexodus.desync.com%3A6969"],"infoHash":"fdd183729350ec694878a7cc5ed43490d41a99bd","infoHashBuffer":{"type":"Buffer","data":[253,209,131,114,147,80,236,105,72,120,167,204,94,212,52,144,212,26,153,189]},"announce":[],"urlList":[]}}